<?xml version="1.0" encoding="utf-8"?>
<svg xmlns="http://www.w3.org/2000/svg" version="1.1" viewBox="0 0 1200 300" width="1200" height="300">
  <title>a deck that goes straight on from a fork, with two branches a click away, at branch A</title>
  <g fill="none" stroke="#8c8c96" stroke-width="4">
    <path d="M260 150 H926"/>
    <path d="M260 150 C375 150 375 60 476 60"/>
    <path d="M260 150 C375 150 375 240 476 240"/>
    <path d="M710 60 C825 60 825 150 926 150"/>
    <path d="M710 240 C825 240 825 150 926 150"/>
  </g>
  <g fill="#8c8c96">
    <path d="M940 150 L922 141 L922 159 Z"/>
    <path d="M490 60 L472 51 L472 69 Z"/>
    <path d="M490 240 L472 231 L472 249 Z"/>
  </g>
  <g font-family="sans-serif" font-size="26" fill="#8c8c96" text-anchor="middle">
    <text x="600" y="140">Next</text>
    <text x="318" y="112">click</text>
    <text x="318" y="210">click</text>
  </g>
  <rect x="40" y="110" width="220" height="80" rx="12" fill="none" stroke="#8c8c96" stroke-width="4"/>
  <text x="150" y="161" font-family="sans-serif" font-size="32" fill="#8c8c96" text-anchor="middle">fork</text>
  <a href="#branch-a">
    <rect x="490" y="20" width="220" height="80" rx="12" fill="#F36F21" stroke="#F36F21" stroke-width="4"/>
    <text x="600" y="71" font-family="sans-serif" font-size="32" fill="#ffffff" text-anchor="middle">branch A</text>
  </a>
  <a href="#branch-b">
    <rect x="490" y="200" width="220" height="80" rx="12" fill="none" stroke="#8c8c96" stroke-width="4"/>
    <text x="600" y="251" font-family="sans-serif" font-size="32" fill="#8c8c96" text-anchor="middle">branch B</text>
  </a>
  <rect x="940" y="110" width="220" height="80" rx="12" fill="none" stroke="#8c8c96" stroke-width="4"/>
  <text x="1050" y="161" font-family="sans-serif" font-size="32" fill="#8c8c96" text-anchor="middle">rejoined</text>
</svg>
